<?xml version="1.0" standalone="no"?><!-- Generator: Gravit.io --><svg xmlns="http://www.w3.org/2000/svg" xmlns:xlink="http://www.w3.org/1999/xlink" style="isolation:isolate" viewBox="0 0 533.334 533.334" width="533.334" height="533.334"><defs><clipPath id="_clipPath_t4blzKTXZiEM1OlWIqcymohNViQtROrB"><rect width="533.334" height="533.334"/></clipPath></defs><g clip-path="url(#_clipPath_t4blzKTXZiEM1OlWIqcymohNViQtROrB)"><g><path d=" M 532.566 174.032 L 526.388 213.657 C 526.388 213.657 517.559 140.295 506.737 112.868 C 490.15 70.843 482.771 71.18 482.722 71.242 C 493.831 99.473 491.815 114.64 491.815 114.64 C 491.815 114.64 472.132 60.995 420.092 43.927 C 362.443 25.03 331.253 30.197 327.65 31.174 C 327.103 31.17 326.575 31.169 326.073 31.169 C 326.497 31.202 326.912 31.246 327.336 31.279 C 327.317 31.29 327.289 31.301 327.294 31.307 C 327.527 31.592 390.994 42.401 402.25 57.867 C 402.25 57.867 375.292 57.867 348.463 65.598 C 347.25 65.945 447.173 78.079 467.602 177.928 C 467.602 177.928 456.647 155.076 443.1 151.195 C 452.009 178.297 449.722 229.724 441.238 255.284 C 440.146 258.571 439.029 241.075 422.317 233.539 C 427.672 271.898 421.997 332.735 395.386 349.494 C 393.312 350.799 412.068 289.437 399.157 313.159 C 324.83 427.119 236.967 365.749 197.464 338.738 C 217.707 343.144 256.138 338.052 273.149 325.397 C 273.171 325.382 273.189 325.369 273.211 325.352 C 291.684 312.721 302.623 303.498 312.447 305.68 C 322.277 307.874 328.821 298.009 321.186 289.257 C 313.542 280.488 294.983 268.436 269.873 275.003 C 252.165 279.641 230.219 299.234 196.723 279.395 C 171.013 264.161 168.592 251.506 168.364 242.741 C 168.998 239.634 169.798 236.733 170.747 234.082 C 173.706 225.817 182.68 223.323 187.671 221.354 C 196.138 222.808 203.432 225.449 211.092 229.378 C 211.191 226.829 211.223 223.445 211.083 219.607 C 211.817 218.148 211.363 213.747 210.186 208.367 C 209.508 202.998 208.405 197.443 206.669 192.382 C 206.675 192.381 206.679 192.377 206.685 192.375 C 206.714 192.365 206.741 192.354 206.767 192.338 C 206.808 192.315 206.843 192.279 206.875 192.239 C 206.881 192.229 206.891 192.222 206.898 192.212 C 206.941 192.148 206.978 192.07 207.001 191.969 C 207.532 189.564 213.263 184.925 220.396 179.938 C 226.788 175.469 234.303 170.721 240.223 167.046 C 245.463 163.792 249.452 161.378 250.3 160.745 C 250.621 160.502 251.007 160.218 251.427 159.893 C 251.505 159.832 251.583 159.772 251.663 159.708 C 251.712 159.67 251.762 159.631 251.812 159.591 C 254.629 157.347 258.835 153.108 259.717 144.186 C 259.719 144.164 259.722 144.144 259.723 144.122 C 259.749 143.86 259.771 143.594 259.79 143.323 C 259.805 143.135 259.816 142.945 259.828 142.752 C 259.835 142.604 259.845 142.457 259.851 142.307 C 259.867 141.955 259.877 141.596 259.882 141.232 C 259.882 141.211 259.883 141.192 259.884 141.171 C 259.896 140.307 259.881 139.407 259.83 138.462 C 259.802 137.934 259.765 137.457 259.675 137.024 C 259.671 137.001 259.665 136.976 259.66 136.953 C 259.651 136.911 259.641 136.868 259.63 136.826 C 259.611 136.75 259.59 136.674 259.567 136.602 C 259.564 136.593 259.561 136.585 259.558 136.578 C 259.531 136.495 259.5 136.414 259.468 136.336 C 259.466 136.333 259.466 136.331 259.465 136.328 C 258.552 134.189 255.132 133.381 241.006 133.141 C 240.993 133.14 240.98 133.14 240.967 133.14 L 240.967 133.14 C 235.203 133.042 227.666 133.038 217.788 133.078 C 200.471 133.148 190.899 116.149 187.844 109.572 C 192.032 86.416 204.134 69.915 224.015 58.725 C 224.391 58.513 224.317 58.338 223.873 58.216 C 227.76 55.864 176.87 58.152 153.463 87.923 C 132.688 82.759 114.581 83.107 98.976 86.769 C 95.979 86.685 92.245 86.311 87.812 85.388 C 77.433 75.984 62.576 58.616 61.78 37.884 C 61.78 37.884 61.732 37.922 61.649 37.99 C 61.638 37.791 61.619 37.594 61.611 37.395 C 61.611 37.395 29.988 61.699 34.721 127.958 C 34.709 129.019 34.687 130.034 34.659 131.018 C 26.101 142.626 21.854 152.383 21.538 154.537 C 13.957 169.977 6.262 193.212 0 228.486 C 0 228.486 4.379 214.598 13.169 198.868 C 6.705 218.671 1.625 249.471 4.608 295.668 C 4.608 295.668 5.397 285.425 8.188 270.671 C 10.369 299.323 19.917 334.695 44.052 376.29 C 90.379 456.144 161.589 496.467 240.298 502.652 C 254.275 503.804 268.448 503.831 282.706 502.748 C 284.017 502.656 285.327 502.56 286.637 502.449 C 302.763 501.317 318.998 498.881 335.199 494.968 C 556.644 441.427 532.566 174.032 532.566 174.032 Z " fill="rgb(255,255,255)"/></g></g></svg>